<svg id="Layer_3" enable-background="new 0 0 64 64" height="512" viewBox="0 0 64 64" width="512" xmlns="http://www.w3.org/2000/svg"><g><path d="m62 23h-11v-21c0-.553-.447-1-1-1h-36c-.553 0-1 .447-1 1v21h-2v-3c0-.553-.447-1-1-1h-6c-.553 0-1 .447-1 1v3h-1c-.553 0-1 .447-1 1v38c0 .553.447 1 1 1h60c.553 0 1-.447 1-1v-38c0-.553-.447-1-1-1zm-47-20h34v20h-2v-17c0-.553-.447-1-1-1h-28c-.553 0-1 .447-1 1v17h-2zm30 12h-2c-2.148 0-4.279.71-6.001 2l-1.202.902-.505-.461c-2.763-2.302-6.674-3.037-10.076-1.9l-6.216 2.072v-10.613h26zm-26 4.72 6.849-2.283c2.757-.919 5.94-.311 8.13 1.512l4.44 4.051h-19.419zm22.388 3.28-4.086-3.726.898-.674c1.376-1.032 3.081-1.6 4.8-1.6h2v6zm-36.388-2h4v2h-4zm56 40h-58v-36h1 6 4 4 28 4 11z"/><path d="m32 27c-8.822 0-16 7.178-16 16s7.178 16 16 16 16-7.178 16-16-7.178-16-16-16zm0 30c-7.72 0-14-6.28-14-14s6.28-14 14-14 14 6.28 14 14-6.28 14-14 14z"/><path d="m32 31c-6.617 0-12 5.383-12 12s5.383 12 12 12 12-5.383 12-12-5.383-12-12-12zm0 22c-5.514 0-10-4.486-10-10s4.486-10 10-10 10 4.486 10 10-4.486 10-10 10z"/><path d="m32 39c-2.206 0-4 1.794-4 4s1.794 4 4 4 4-1.794 4-4-1.794-4-4-4zm0 6c-1.103 0-2-.897-2-2s.897-2 2-2 2 .897 2 2-.897 2-2 2z"/><path d="m13 27h-6c-1.103 0-2 .897-2 2v6c0 1.103.897 2 2 2h6c1.103 0 2-.897 2-2v-6c0-1.103-.897-2-2-2zm-6 8v-6h6l.002 6z"/><path d="m55 51c-2.206 0-4 1.794-4 4s1.794 4 4 4 4-1.794 4-4-1.794-4-4-4zm0 6c-1.103 0-2-.897-2-2s.897-2 2-2 2 .897 2 2-.897 2-2 2z"/><path d="m24 41h2v4h-2z"/><path d="m38 41h2v4h-2z"/><path d="m45 31c0 2.206 1.794 4 4 4h6c2.206 0 4-1.794 4-4s-1.794-4-4-4h-6c-2.206 0-4 1.794-4 4zm2 0c0-1.103.897-2 2-2v4c-1.103 0-2-.897-2-2zm4-2h2v4h-2zm6 2c0 1.103-.897 2-2 2v-4c1.103 0 2 .897 2 2z"/><path d="m36 15c1.654 0 3-1.346 3-3s-1.346-3-3-3-3 1.346-3 3 1.346 3 3 3zm0-4c.552 0 1 .448 1 1s-.448 1-1 1-1-.448-1-1 .448-1 1-1z"/></g></svg>